<?xml version="1.0" encoding="utf-8"?>
<!-- Generator: Adobe Illustrator 14.0.0, SVG Export Plug-In . SVG Version: 6.00 Build 43363)  -->
<!DOCTYPE svg PUBLIC "-//W3C//DTD SVG 1.1//EN" "http://www.w3.org/Graphics/SVG/1.1/DTD/svg11.dtd">
<svg version="1.1" id="Layer_1" xmlns="http://www.w3.org/2000/svg" xmlns:xlink="http://www.w3.org/1999/xlink" x="0px" y="0px"
	 width="595.28px" height="841.89px" viewBox="0 0 595.28 841.89" enable-background="new 0 0 595.28 841.89" xml:space="preserve">
<radialGradient id="SVGID_1_" cx="299" cy="397" r="214.7673" gradientUnits="userSpaceOnUse">
	<stop  offset="0" style="stop-color:#EC008C"/>
	<stop  offset="0.8102" style="stop-color:#DD1865"/>
	<stop  offset="1" style="stop-color:#DA1C5C"/>
</radialGradient>
<ellipse fill="url(#SVGID_1_)" stroke="#000000" cx="299" cy="397" rx="165" ry="255"/>
<g>
	<g>
		<path d="M160.103,542.987c-18.184,22.722-36.521,45.357-52.893,69.445c-7.848,11.547-15.931,23.494-21.193,36.48
			c-5.468,13.491-7.605,28.044-13.981,41.212c-0.304,0.628,1.499,0.278,1.737,0.023c18.572-19.941,47.859-26.256,73.271-32.591
			c14.185-3.536,27.896-7.969,41.479-13.392c16.529-6.599,32.724-14.005,49.604-19.697c1.119-0.377,0.895-1.324-0.251-0.938
			c-15.916,5.367-31.263,12.167-46.793,18.526c-15.317,6.272-30.823,11.202-46.863,15.205c-25.036,6.247-53.717,12.968-71.99,32.589
			c0.579,0.008,1.158,0.016,1.737,0.023c6.09-12.576,8.553-26.391,13.308-39.457c5.147-14.144,14.347-27.094,22.76-39.472
			c16.021-23.574,34.069-45.697,51.864-67.934C162.427,542.352,160.483,542.511,160.103,542.987L160.103,542.987z"/>
	</g>
</g>
<g>
	<g>
		<path d="M432.034,544.259c4.529,27.461,27.021,49.183,43.126,70.493c4.276,5.658,8.319,11.493,11.847,17.649
			c3.103,5.416,5.231,11.076,9.018,16.103c7.721,10.249,20.719,19.025,22.01,32.755c0.526-0.235,1.052-0.471,1.578-0.706
			c-26.867-3.6-50.047-18.514-73.874-30.324c-11.16-5.532-22.846-10.566-35.099-13.08c-13.506-2.771-28.087-3.389-39.734-11.497
			c-0.49-0.342-2.196,0.429-1.811,0.697c11.058,7.697,24.319,8.409,37.122,11.063c13.356,2.769,25.729,7.651,37.954,13.64
			c24.041,11.775,47.157,26.77,74.217,30.396c0.364,0.049,1.631-0.147,1.578-0.706c-1.156-12.3-12.002-21.017-19.556-29.771
			c-4.455-5.161-7.102-10.771-10.191-16.74c-3.02-5.836-6.768-11.288-10.607-16.606c-16.482-22.827-40.864-44.891-45.646-73.883
			C433.883,543.234,431.938,543.677,432.034,544.259L432.034,544.259z"/>
	</g>
</g>
<g>
	<g>
		<path d="M278.97,146.896c0.264-22.443,9.559-43.598,15.207-65.003c5.224-19.797,6.534-40.85,23.609-54.69
			c-0.584,0.019-1.168,0.038-1.752,0.056c5.897,38.424,2.102,77.575,8,116c0.113,0.741,2.054,0.274,1.932-0.518
			c-5.897-38.424-2.102-77.575-8-116c-0.112-0.735-1.464-0.177-1.752,0.056c-15.691,12.718-18.615,31.751-22.771,50.38
			c-5.205,23.328-16.128,45.669-16.413,69.927C277.02,147.988,278.962,147.611,278.97,146.896L278.97,146.896z"/>
	</g>
</g>
<g>
	<g>
		<path fill="#EE2A7B" d="M288.235,139.98c6.195-18.341,14.697-35.748,21.923-53.683c3.355-8.331,5.049-16.122,5.425-25.111
			c0.344-8.21-0.314-17.061,3.912-24.437c-4.666-1.268-9.331-2.536-13.997-3.804c-1.238,17.293-13.271,32.058-18.82,48.091
			c-5.873,16.968-4.338,36.315-3.18,53.909c0.506,7.674,9.671,10.086,13.997,3.804c15.166-22.022,23.273-48.847,28.74-74.77
			c-4.912-0.678-9.825-1.356-14.737-2.035c-2.761,25.79-4.182,50.587,2.258,75.996c2.05,8.091,15.232,6.672,14.746-1.887
			c-1.995-35.095,7.055-71.279-7.032-104.852c-2.47-5.886-12.679-4.259-13.705,1.817c-3.034,17.979-6.898,35.76-8.767,53.926
			c-1.862,18.112-2.74,39.873,7.532,55.852c3.656,5.687,11.524,4.311,13.705-1.817c1.604-4.508,1.806-8.174,1.009-12.922
			c-0.778-4.641-7.253-7.134-11.042-4.528c-5.199,3.577-10.015,7.894-12.697,13.72c-4.014,8.717,8.94,16.295,12.99,7.5
			c1.616-3.511,4.136-6.102,7.303-8.28c-3.681-1.51-7.361-3.019-11.042-4.528c0.344,2.048-0.299,3.132-0.991,5.078
			c4.568-0.605,9.137-1.211,13.705-1.817c-8.778-13.655-6.96-32.786-5.468-48.148c1.639-16.871,5.417-33.388,8.233-50.074
			c-4.568,0.605-9.137,1.211-13.705,1.817c6.254,14.904,6.432,31.706,6.053,47.592c-0.395,16.52-2.024,33.026-1.085,49.556
			c4.916-0.629,9.831-1.258,14.746-1.887c-6.096-24.054-4.355-47.598-1.742-72.004c0.909-8.491-12.999-10.277-14.737-2.035
			c-5.229,24.796-12.748,50.158-27.26,71.23c4.666,1.268,9.331,2.536,13.997,3.804c-1.125-17.075-2.532-35.097,3.158-51.535
			c5.987-17.299,17.489-31.597,18.842-50.465c0.55-7.684-10.406-10.071-13.997-3.804c-8.765,15.297-3.265,33.523-9.428,49.56
			c-7.393,19.236-16.707,37.659-23.312,57.209C270.659,145.213,285.156,149.095,288.235,139.98L288.235,139.98z"/>
	</g>
</g>
<g>
	<g>
		<path fill="#EE2A7B" d="M152.505,543.25c-15.946,21.752-28.049,45.892-42.06,68.864c-13.753,22.552-30.218,43.883-40.94,68.136
			c4.666,1.268,9.331,2.536,13.997,3.804c-3.651-30.021,21.096-53.243,42.359-69.201c10.378-7.788,20.812-15.565,30.252-24.494
			c8.551-8.087,17.353-18.083,18.389-30.305c0.538-6.339-6.588-8.565-11.299-6.523c-25.915,11.233-38.475,38.795-53.697,60.72
			c4.666,1.268,9.331,2.536,13.997,3.804c0.636-6.071,5.325-11.474,9.163-15.876c4.741-5.438,10.095-10.315,14.668-15.902
			c-3.942-3.008-7.885-6.017-11.828-9.025c-7.82,13.639-21.288,22.768-29.404,36.256c-9.226,15.334-6.45,35.048-16.596,49.744
			c4.577,1.91,9.153,3.82,13.73,5.73c6.918-19.637,22.948-33.778,38.252-47.03c15.781-13.664,32.147-27.404,42.008-46.2
			c3.687-7.026-3.6-13.276-10.293-10.22c-21.365,9.758-36.375,25.691-49.205,44.973c-7.052,10.6-13.443,21.528-21.482,31.439
			c-8.554,10.546-17.803,20.475-26.011,31.308c-4.163,5.495,2.695,12.482,8.436,10.994c23.982-6.215,48.84-10.899,70.857-22.774
			c20.5-11.058,41.206-28.608,65.148-30.968c9.446-0.932,9.889-15.514,0.108-15.004c-20.81,1.085-39.923,7.25-59.257,14.596
			c-18.679,7.097-33.33,21.256-51.738,28.662c2.424,4.173,4.849,8.347,7.273,12.52c27.156-22.791,64.043-30.602,87-59
			c2.144-2.651,2.969-5.948,1.137-9.073c-1.521-2.594-5.385-4.702-8.411-3.446c-37.191,15.425-72.371,36.04-104.857,59.774
			c3.431,3.406,6.862,6.813,10.293,10.22c8.427-16.971,23.349-29.842,37.712-41.725c15.661-12.956,32.393-24.701,47.125-38.75
			c-3.942-3.008-7.885-6.017-11.828-9.025c-11.768,15.506-33.059,21.99-42,40c-3.537,7.124,3.491,13.191,10.293,10.22
			c19.101-8.347,41.082-17.553,51.697-36.72c-4.577-1.91-9.153-3.82-13.73-5.73c-2.292,10.572-14.358,16.802-22.932,21.84
			c-11.028,6.479-23.458,12.222-32.166,21.865c-4.429,4.904-1.313,12.425,5.278,12.777c14.205,0.759,25.761-5.925,36.271-14.784
			c9.227-7.778,17.618-17.351,29.725-20.474c-3.059-3.074-6.117-6.149-9.176-9.225c-3.338,11.01-12.783,19.218-17,30
			c-2.215,5.663,4.164,10.3,9.176,9.225c12.824-2.75,21.957-12.613,31.392-20.969c7.243-6.413-3.447-16.943-10.665-10.551
			c-7.41,6.562-14.53,14.869-24.608,17.031c3.059,3.074,6.117,6.149,9.176,9.225c4.246-10.854,13.548-18.612,17-30
			c1.677-5.53-3.802-10.611-9.176-9.225c-12.758,3.29-22.468,11.906-32.04,20.489c-8.719,7.817-17.657,14.91-29.965,14.253
			c1.759,4.26,3.519,8.519,5.278,12.777c8.615-9.54,21.474-14.872,32.319-21.392c11.099-6.672,23.66-15.417,26.583-28.903
			c1.761-8.122-9.458-13.444-13.73-5.73c-9.155,16.53-29.914,24.119-46.303,31.28c3.431,3.406,6.862,6.813,10.293,10.22
			c3.947-7.95,11.615-13.368,18.535-18.589c8.568-6.465,16.932-12.803,23.465-21.411c5.32-7.01-5.904-14.674-11.828-9.025
			c-14.726,14.042-31.426,25.851-47.125,38.75c-15.341,12.605-31.072,26.72-40.038,44.775c-3.026,6.094,3.735,15.011,10.293,10.22
			c31.292-22.861,65.29-43.354,101.143-58.226c-2.424-4.173-4.849-8.347-7.273-12.52c-22.647,28.015-59.994,36.334-87,59
			c-5.546,4.655,0.403,15.284,7.273,12.52c17.895-7.198,32.187-20.833,50-28c18.295-7.359,37.183-13.709,57.005-14.742
			c0.036-5.001,0.072-10.003,0.108-15.004c-25.748,2.538-46.825,18.465-68.706,30.785c-22.107,12.448-46.982,17.173-71.29,23.473
			c2.812,3.664,5.624,7.329,8.436,10.994c7.768-10.252,16.665-19.601,24.763-29.586c7.895-9.732,14.368-20.328,21.185-30.81
			c5.517-8.483,11.368-16.652,18.506-23.858c7.698-7.772,16.938-13.501,26.849-18.026c-3.431-3.406-6.862-6.813-10.293-10.22
			c-9.877,18.826-27.004,32.094-42.738,45.803c-16.433,14.318-31.621,30.016-39.002,50.967c-3.005,8.53,9.174,12.33,13.73,5.73
			c10.324-14.953,7.848-34.244,16.597-49.744c7.689-13.623,21.552-22.563,29.403-36.256c4.128-7.2-6.305-15.771-11.828-9.025
			c-10.774,13.161-26.266,24.048-28.169,42.222c-0.857,8.18,10.161,9.327,13.997,3.804c13.778-19.845,24.853-45.116,48.303-55.28
			c-3.767-2.175-7.533-4.35-11.299-6.523c-0.747,8.803-12.271,18.428-18.959,24.347c-8.796,7.785-18.396,14.543-27.676,21.721
			c-23.84,18.439-48.325,45.379-44.365,77.933c0.414,3.402,1.969,6.313,5.521,7.289c2.987,0.82,7.133-0.448,8.476-3.485
			c10.461-23.661,26.364-44.678,39.974-66.566c14.539-23.383,26.707-48.173,43.026-70.434c2.421-3.302,0.505-8.369-2.745-10.245
			C158.923,538.295,154.919,539.956,152.505,543.25L152.505,543.25z"/>
	</g>
</g>
<g>
	<g>
		<path fill="#EE2A7B" d="M514.054,666.498c-10.715,0.599-20.092-6.685-29.749-10.373c-5.582-2.132-11.53-3.297-17.321-4.701
			c-6.525-1.583-12.73-3.894-18.983-6.309c-23.977-9.263-47.274-20.183-72.02-27.351c-1.32,4.823-2.641,9.647-3.961,14.471
			c45.555,9.417,83.966,42.889,131.927,42.267c5.68-0.074,9.464-6.293,6.523-11.3c-6.246-10.634-17.702-12.792-29.121-13.34
			c-5.11-0.245-10.146-0.169-15.097-1.596c-7.447-2.146-14.342-5.94-21.177-9.508c-9.326-4.868-19.083-8.045-28.944-11.627
			c-4.723-1.715-9.375-3.565-13.861-5.837c-1.712-0.866-3.981-2.1-5.233-3.073c-1.865-1.45-1.987-1.75-2.566-3.02
			c-2.175,3.767-4.35,7.533-6.523,11.3c19.356,2.293,38.915,13.029,55.247,23.177c13.668,8.493,29.096,24.21,46.748,19.565
			c3.646-0.959,6.76-5.37,5.303-9.186c-3.121-8.175-10.538-12.649-18.172-16.155c-8.815-4.049-18.116-6.902-27.256-10.104
			c-7.969-2.791-15.806-6.78-24.218-9.848c-8.792-3.206-20.694-6.451-26.129-14.749c-2.816,3.678-5.634,7.355-8.45,11.033
			c30.034,7.379,50.281,34.437,80,43c5.952,1.715,10.043-3.807,9.225-9.177c-2.511-16.489-16.889-25.73-31.072-31.756
			c-13.476-5.724-30.883-9.24-40.896-20.636c-1.776,4.278-3.553,8.557-5.329,12.835c17.827-1.293,32.48,12.519,47.02,20.807
			c7.404,4.221,14.916,7.98,22.187,12.484c7.54,4.671,15.719,9.361,24.794,9.709c6.241,0.238,8.718-6.392,6.523-11.3
			c-14.327-32.034-49.422-45.827-71.194-71.534c-3.985-4.706-13.529-1.091-12.777,5.278c1.207,10.223,8.474,19.087,15.661,26.017
			c6.522,6.288,18.369,14.634,26.64,6.302c9.236-9.304,1.048-24.453-6.56-31.547c-7.472-6.966-20.428-12.571-21.995-23.659
			c-4.829,1.294-9.659,2.589-14.488,3.883c1.661,10.924,9.961,19.452,17.969,26.392c6.57,5.693,15.436-1.427,11.745-9.131
			c-5.303-11.068-6.337-23.701-14.194-33.534c-5.067-6.343-13.811,0.718-12.52,7.273c3.093,15.717,11.416,29.276,21.56,41.339
			c8.274,9.84,23.393,16.62,25.183,30.666c4.26-1.76,8.519-3.52,12.777-5.279c-18.8-21.404-48.934-27.707-67-49.999
			c-3.517,3.555-7.034,7.109-10.551,10.664c15.045,14.907,33.516,27.481,43.806,46.466c4.644,8.566,17.164,1.001,12.939-7.596
			c-9.295-18.912-28.509-30.687-37-50c-2.989-6.799-14.443-3.408-13.972,3.744c1.873,28.361,30.601,40.79,45.032,61.852
			c2.816-3.678,5.634-7.355,8.45-11.033c-20.486-4.196-40.297-11.445-58.23-22.26c-1.268,4.666-2.536,9.331-3.804,13.997
			c14.802-1.473,34.601,7.992,47.337-3.166c3.447-3.021,3.979-8.099,2.961-12.277c-1.347-5.525-6.799-8.729-11.695-10.562
			c-9.583-3.588-21.862-1.014-30.568-2.732c-8.167-1.611-13.368,9.259-5.73,13.73c11.97,7.008,25.52,10.752,37.305,18.101
			c6.002,3.742,10.931,9.146,15.861,14.149c5.609,5.692,11.334,11.074,17.834,15.75c2.5-4.33,5-8.66,7.5-12.99
			c-13.756-6.171-28.247-10.534-42.248-16.093c-12.186-4.838-27.289-10.998-35.032-22.21c-5.456-7.899-18.45-0.384-12.939,7.596
			c9.13,13.219,24.037,20.727,38.465,26.803c14.549,6.127,29.857,10.437,44.255,16.895c8.854,3.972,15.388-7.316,7.5-12.99
			c-11.82-8.502-20.38-20.667-32.364-29.023c-11.812-8.236-26.254-11.728-38.636-18.977c-1.91,4.577-3.82,9.153-5.73,13.73
			c7.896,1.558,16.062,0.756,24.048,1.4c2.529,0.204,6.54,0.924,7.833,2.04c-0.602-0.52,0.326,1.2,0.014-0.085
			c-0.249-1.022,0.042-1.561,0.433-2.48c-0.49,1.154,0.614-0.596,0.973-0.855c-0.335,0.243-1.966,0.864-0.321,0.258
			c-2.676,0.987-4.187,0.883-7.596,0.92c-3.935,0.042-7.876-0.285-11.792-0.637c-5.71-0.513-11.813-1.869-17.557-1.298
			c-7.188,0.715-10.679,9.852-3.804,13.997c18.939,11.421,40.13,19.307,61.77,23.74c5.921,1.213,12.458-5.184,8.45-11.033
			c-6.993-10.205-16.544-18.181-25.362-26.729c-7.478-7.25-16.874-16.347-17.605-27.42c-4.657,1.248-9.314,2.496-13.972,3.744
			c8.528,19.397,27.723,31.122,37,50c4.313-2.532,8.626-5.063,12.939-7.596c-10.97-20.236-30.172-33.66-46.194-49.534
			c-7.021-6.957-16.506,3.316-10.551,10.664c9.245,11.409,21.523,19.368,34.146,26.575c11.79,6.732,23.772,13.084,32.854,23.426
			c4.012,4.567,13.601,1.179,12.777-5.279c-1.07-8.394-3.944-15.111-9.161-21.747c-4.308-5.479-10.09-9.694-15.218-14.351
			c-11.465-10.409-19.878-24.648-22.879-39.897c-4.173,2.425-8.347,4.85-12.52,7.273c2.976,3.725,4.183,9.175,5.577,13.612
			c1.801,5.733,3.626,11.422,6.229,16.854c3.915-3.044,7.83-6.087,11.745-9.13c-6.14-5.32-12.75-11.188-14.031-19.609
			c-0.616-4.05-5.567-6.272-9.186-5.303c-4.311,1.154-5.875,5.139-5.303,9.186c1.408,9.962,9.063,17.03,16.585,22.907
			c5.5,4.297,15.014,9.964,15.181,17.105c0.045,1.881-0.723,2.488,0.612,0.76c0.642-0.831,0.275-0.481,1.376-0.787
			c0.776-0.216,1.459-0.052,0.703-0.257c-1.926-0.522,1.241,0.671-0.731-0.305c-0.692-0.344-1.349-0.761-2.003-1.171
			c-1.488-0.932-2.551-1.875-4.066-3.242c-2.892-2.608-5.544-5.548-7.81-8.713c-1.196-1.671-2.255-3.434-3.207-5.253
			c-0.055-0.104-1.019-2.443-0.435-0.905c-0.163-0.431-0.707-3.128-0.459-1.027c-4.26,1.76-8.519,3.52-12.777,5.278
			c20.83,24.596,55.153,37.939,68.806,68.466c2.175-3.767,4.35-7.533,6.523-11.3c-7.599-0.29-15.082-6.232-21.267-10.104
			c-7.183-4.496-14.854-7.938-22.103-12.29c-15.656-9.399-31.258-22.01-50.631-20.605c-6.711,0.486-9.824,7.72-5.329,12.835
			c10.003,11.384,25.892,15.951,39.553,21.225c12.192,4.706,26.361,10.479,28.479,24.384c3.074-3.059,6.149-6.118,9.225-9.177
			c-29.602-8.529-49.671-35.549-80-43c-6.087-1.495-12.203,5.304-8.45,11.033c5.836,8.908,15.125,13.785,24.739,17.688
			c8.831,3.584,17.702,6.906,26.462,10.644c8.45,3.605,17.312,6.148,25.913,9.356c4.055,1.512,8.002,3.242,11.775,5.366
			c1.445,0.813,2.825,1.737,3.853,2.633c-0.027-0.024,1.784,1.907,0.946,0.817c0.164,0.213,1.136,2.207,0.537,0.64
			c1.768-3.063,3.535-6.124,5.303-9.186c-6.393,1.682-13.498-3.401-18.586-6.628c-7.198-4.564-13.848-9.896-21.298-14.067
			c-18.121-10.146-37.23-20.087-58.121-22.563c-6.29-0.745-8.604,6.736-6.523,11.3c3.789,8.309,14.657,12.446,22.491,15.654
			c8.486,3.476,19.105,6.582,26.558,9.745c13.326,5.657,25.002,14.206,39.728,16.059c8.125,1.022,22.291-1.855,27.224,6.542
			c2.175-3.767,4.35-7.533,6.523-11.3c-46.134,0.599-84.057-32.634-128.073-41.733c-9.419-1.946-13.316,11.761-3.961,14.471
			c24.733,7.164,48.084,18.009,72.021,27.35c11.896,4.643,24.306,6.822,36.304,11.01c11.458,3.999,20.818,11.621,33.603,10.907
			C523.572,680.964,523.709,665.959,514.054,666.498L514.054,666.498z"/>
	</g>
</g>
<ellipse fill="#FFFFFF" stroke="#EE2A7B" cx="150.5" cy="325" rx="77.5" ry="82"/>
<ellipse fill="#FFFFFF" stroke="#EE2A7B" cx="448.5" cy="367" rx="65.5" ry="77"/>
<ellipse stroke="#000000" cx="179.335" cy="352.389" rx="28.835" ry="27.389"/>
<ellipse stroke="#000000" cx="428.579" cy="353" rx="40.421" ry="44"/>
<g>
	<g>
		<path d="M248.034,490.259c-0.022,17.238-1.5,35.431,4.017,52.052c5.59,16.841,20.528,24.213,37.566,24.193
			c14.928-0.018,29.261-4.422,35.837-18.873c7.116-15.636,5.085-35.199,5.512-51.89c0.01-0.368-1.916-0.09-1.932,0.518
			c-0.4,15.635,0.721,32.118-3.846,47.268c-2.015,6.687-5.77,12.634-11.552,16.648c-8.46,5.873-20.269,6.104-30.11,5.068
			c-37.45-3.942-33.596-47.9-33.561-75.502C249.966,489.359,248.035,489.658,248.034,490.259L248.034,490.259z"/>
	</g>
</g>
<g>
	<g>
		<path d="M160.605,536.553c-22.266,8.582-32.59,36.028-42.761,55.533c-16.277,31.217-40.42,57.869-58.75,87.867
			c-0.234,0.383,0.196,0.647,0.542,0.64c13.168-0.309,24.732-7.579,36.921-11.787c15.053-5.196,30.503-9.126,45.566-14.262
			c27.843-9.493,55.224-22.684,84.758-25.959c0.981-0.108,1.57-1.317,0.237-1.17c-27.036,2.998-52.503,14.231-77.845,23.43
			c-14.521,5.271-29.455,9.229-44.157,13.951c-6.554,2.104-13.06,4.356-19.511,6.757c-7.494,2.787-13.939,6.743-22.074,7.703
			c-3.534,0.417-0.183-3.166,0.299-3.937c0.982-1.568,1.987-3.122,2.992-4.676c2.007-3.104,4.074-6.168,6.154-9.224
			c4.5-6.614,9.159-13.12,13.817-19.623c8.964-12.515,17.952-25.012,26.189-38.023c11.845-18.708,18.92-40.652,34.524-56.853
			c3.941-4.091,8.577-7.426,13.889-9.474C162.649,536.964,161.513,536.202,160.605,536.553L160.605,536.553z"/>
	</g>
</g>
<g>
	<g>
		<path d="M432.105,548.389c18.545,17.249,34.786,36.36,48.094,57.938c7.063,11.451,12.703,23.698,20.029,34.982
			c7.743,11.928,16.604,23.079,22.806,35.95c0.517-0.271,1.033-0.541,1.55-0.812c-28.46-8.029-56.922-16.134-86.238-20.411
			c-28.529-4.163-59.684-1.437-84.582-18.523c-0.559-0.383-2.333,0.422-1.527,0.975c23.614,16.205,52.666,14.559,79.832,17.961
			c31.097,3.895,61.267,12.617,91.348,21.104c0.331,0.093,1.849-0.192,1.55-0.812c-5.732-11.896-13.66-22.442-21.038-33.335
			c-7.9-11.663-13.856-24.449-21.115-36.505c-13.336-22.146-30.02-41.711-48.918-59.29
			C433.365,547.119,431.543,547.865,432.105,548.389L432.105,548.389z"/>
	</g>
</g>
<g>
	<g>
		<path d="M460.021,452.071c0.467,13.492-6.571,25.896-12.587,37.516c-6.799,13.134-10.973,27.181-15.731,41.154
			c-4.484,13.168-8.388,26.346-14.503,38.891c-5.659,11.61-12.98,22.283-21.231,32.191c-17.493,21.006-39.356,41.024-65.049,51.222
			c-26.972,10.706-57.359,3.041-81.456-11.384c-17.33-10.374-30.687-25.286-42.101-41.728
			c-12.323-17.751-22.421-37.126-30.523-57.137c-3.688-9.109-6.83-18.442-9.354-27.94c-2.961-11.143-4.366-22.651-6.62-33.949
			c-4.962-24.869-11.18-49.596-12.886-74.978c-0.069-1.026-2.017-0.728-1.959,0.142c2.105,31.318,10.854,61.637,16.101,92.477
			c4.388,25.79,13.887,50.114,26,73.237c11.766,22.46,26.218,44.717,45.861,61.069c18.475,15.38,43.633,26.421,67.935,26.862
			c22.662,0.412,43.196-10.118,60.813-23.563c18.288-13.958,34.89-31.478,47.479-50.734c13.512-20.668,19.855-44.343,27.819-67.447
			c2.146-6.226,3.843-12.682,6.55-18.687c2.32-5.146,5.057-10.107,7.624-15.133c5.099-9.98,10.173-20.759,9.777-32.225
			C461.943,450.901,459.99,451.194,460.021,452.071L460.021,452.071z"/>
	</g>
</g>
<g>
	<g>
		<path d="M119.896,250.61c-18.775,4.948-31.249,19.416-38.727,36.753c-4.172,9.672-6.656,20.044-8.284,30.421
			c-1.493,9.519-2.626,19.734-1.506,29.344c2.305,19.756,17.561,34.69,35.037,42.395c18.062,7.963,38.854,8.114,57.152,0.994
			c20.854-8.115,38.12-24.639,48.068-44.552c9.202-18.419,12.283-43.462,1.041-61.707c-8.882-14.414-26.026-20.582-41.832-23.638
			c-17.923-3.464-36.396-3.168-54.568-3.097c-6.328,0.025-12.565,0.864-18.879,1.008c-0.612,0.014-2.09,0.965-0.794,0.936
			c10.849-0.249,21.588-1.081,32.466-1.027c9.776,0.048,19.552,0.385,29.276,1.434c17.84,1.925,37.404,6.643,49.501,20.917
			c14.5,17.11,11.437,43.809,3.078,62.89c-10.279,23.464-32.311,42.927-57.244,49.236c-34.529,8.737-79.226-12.507-80.757-51.303
			c-0.686-17.362,2.964-36.084,9.216-52.222c6.786-17.517,19.176-33.05,37.966-38.002
			C121.249,251.089,121.038,250.309,119.896,250.61L119.896,250.61z"/>
	</g>
</g>
<g>
	<g>
		<path d="M178.966,243.741c-2.324-42.585,36.427-72.966,73.107-85.303c18.583-6.25,39.121-8.8,58.414-4.528
			c13.163,2.915,23.204,11.234,33.637,19.271c11.033,8.499,23.371,15.295,35.196,22.613c14.823,9.174,31.211,19.015,41.459,33.467
			c9.493,13.387,13.446,30.097,16.255,45.998c0.118,0.669,2.059,0.2,1.932-0.518c-2.177-12.325-5.112-24.514-10.435-35.896
			c-5.429-11.609-13.625-19.739-23.555-27.546c-11.435-8.99-24.026-16.389-36.4-23.982c-6.315-3.876-12.746-7.681-18.775-11.993
			c-5.67-4.056-10.99-8.576-16.673-12.618c-31.071-22.105-76.408-11.114-107.082,6.204c-27.295,15.41-50.814,42.326-49.012,75.349
			C177.068,244.891,179.007,244.491,178.966,243.741L178.966,243.741z"/>
	</g>
</g>
<g>
	<g>
		<path d="M452.124,289.435c-66.638,3.352-77.418,103.608-32.973,140.563c17.069,14.192,38.846,14.815,58.191,4.785
			c10.584-5.488,19.419-13.382,24.988-23.991c5.372-10.234,6.664-22.112,6.929-33.49c0.499-21.476-1.935-43.539-7.566-64.272
			c-2.545-9.371-6.033-18.959-12.139-26.637c-5.034-6.331-12.708-8.441-20.463-9.188c-15.679-1.51-33.397,2.478-47.481,9.367
			c-1.202,0.588-0.102,1.287,0.779,0.855c9.038-4.421,19.021-6.967,28.942-8.415c10.087-1.471,21.729-1.868,30.914,3.236
			c8.482,4.714,12.632,16.24,15.561,24.858c3.659,10.77,5.73,22.091,7.274,33.335c1.485,10.824,2.168,21.716,2.268,32.638
			c0.113,12.387-1.005,24.975-6.202,36.368c-6.173,13.528-18.794,22.644-32.294,28.008c-13.909,5.527-28.705,3.882-41.434-3.66
			c-51.739-30.659-43.003-139.838,24.457-143.23C452.859,290.516,453.457,289.368,452.124,289.435L452.124,289.435z"/>
	</g>
</g>
<g>
	<g>
		<path d="M282.384,141.65c-1.644,1.006-4.312,3.761-5.046,0.458c-0.507-2.28-0.743-4.615-0.936-6.939
			c-0.453-5.464-0.008-10.995,0.646-16.422c1.347-11.184,4.366-22.153,7.591-32.918c3.097-10.339,6.195-20.228,11.966-29.434
			c6.072-9.687,13.101-18.592,17.304-29.337c-0.625,0.067-1.25,0.134-1.875,0.201c9.813,19.531,11.605,41.936,12.161,63.451
			c0.547,21.176-0.711,42.402,0.839,63.549c0.054,0.736,1.992,0.303,1.932-0.518c-1.62-22.105-0.258-44.313-0.918-66.449
			c-0.612-20.558-2.722-41.921-12.082-60.551c-0.305-0.606-1.64-0.402-1.875,0.201c-3.994,10.208-10.476,18.904-16.444,28
			c-5.818,8.866-8.925,18.063-12.038,28.103c-6.036,19.468-12.784,41.821-7.574,62.213c0.086,0.339,0.578,0.378,0.853,0.347
			c2.833-0.321,4.352-1.801,6.729-3.255C284.734,141.666,283.077,141.226,282.384,141.65L282.384,141.65z"/>
	</g>
</g>
</svg>
